<svg width="1440" height="286" viewBox="0 0 1440 286" fill="none" xmlns="http://www.w3.org/2000/svg">
<rect width="1454.9" height="285.223" fill="black" fill-opacity="0" transform="translate(0 0.00012207)"/>
<rect y="12" width="1440" height="224" fill="#512889"/>
<path d="M163 12.0007H244.987L345 240.001H263.013L163 12.0007Z" fill="url(#paint0_linear)"/>
<path d="M939 14.0007H1019.19L1117 237.001H1036.81L939 14.0007Z" fill="url(#paint1_linear)"/>
<path d="M1189 14.0007H1269.19L1367 237.001H1286.81L1189 14.0007Z" fill="url(#paint2_linear)"/>
<path d="M381 14.0007H445.027L553.346 261.001L489.293 260.946L381 14.0007Z" fill="url(#paint3_linear)"/>
<path d="M436.723 14.0007H457.705L566 260.946L544.88 260.635L436.723 14.0007Z" fill="url(#paint4_linear)"/>
<path d="M656 12.0007H719.794L827.719 257.001H763.925L656 12.0007Z" fill="url(#paint5_linear)"/>
<path d="M707.601 12.0007H796.075L904 257.001H815.526L707.601 12.0007Z" fill="url(#paint6_linear)"/>
<path d="M1060 12.0007H1081.02L1189.48 259.001L1168.33 258.69L1060 12.0007Z" fill="url(#paint7_linear)"/>
<path fill-rule="evenodd" clip-rule="evenodd" d="M1388.62 79.0706C1390.73 77.3051 1391.46 74.5075 1390.7 72.0351L1411.12 54.9467L1429.99 77.413L1449.72 100.873L1447.19 129.601L1425.79 147.501C1425.03 147.099 1424.18 146.84 1423.27 146.759C1419.62 146.438 1416.4 149.135 1416.08 152.782C1415.76 156.43 1418.46 159.647 1422.11 159.968C1425.76 160.289 1428.98 157.593 1429.3 153.945C1429.38 153.038 1429.28 152.158 1429.01 151.342L1452.01 132.106L1454.9 99.2472L1433.84 74.1971L1433.84 74.1958L1412.6 48.9143L1412.47 49.0247L1411.61 48.0001L1387.52 68.161C1385.19 66.903 1382.24 67.1096 1380.09 68.9077C1377.28 71.2585 1376.91 75.4393 1379.27 78.2457C1381.63 81.0521 1385.81 81.4214 1388.62 79.0706ZM1382.59 71.8871C1383.75 70.9149 1385.48 71.0676 1386.46 72.2281C1387.43 73.3888 1387.28 75.1178 1386.12 76.09C1384.96 77.0622 1383.23 76.9094 1382.25 75.7488C1381.28 74.5883 1381.43 72.8593 1382.59 71.8871ZM1256.03 82.623L1277.21 103.848C1278 103.516 1278.86 103.332 1279.77 103.332C1283.44 103.332 1286.4 106.304 1286.4 109.971C1286.4 113.637 1283.44 116.609 1279.77 116.609C1276.11 116.609 1273.14 113.637 1273.14 109.971C1273.14 109.057 1273.33 108.186 1273.66 107.394L1253.96 87.6414H1225.12L1203.48 109.35L1182.75 130.115L1201.56 148.961C1203.96 147.983 1206.81 148.467 1208.75 150.414C1211.34 153.007 1211.34 157.211 1208.75 159.805C1206.16 162.399 1201.96 162.4 1199.37 159.807C1197.4 157.824 1196.93 154.898 1197.98 152.471L1178.26 132.716L1151.8 132.699L1130.6 153.921V182.808L1152.27 204.49L1148.73 208.037L1125.59 184.887V151.844V151.841H1125.59L1147.45 129.952V127.679V100.519C1145.07 99.5137 1143.4 97.1517 1143.4 94.3981C1143.4 90.7316 1146.36 87.7594 1150.03 87.7594C1153.69 87.7594 1156.66 90.7316 1156.66 94.3981C1156.66 97.2025 1154.92 99.6007 1152.46 100.573V127.682L1178.08 127.699L1199.93 105.801L1202.62 108.494L1199.94 105.802L1223.04 82.623H1223.04H1256.03ZM1152.77 94.3981C1152.77 95.9144 1151.54 97.1435 1150.03 97.1435C1148.51 97.1435 1147.28 95.9144 1147.28 94.3981C1147.28 92.882 1148.51 91.6528 1150.03 91.6528C1151.54 91.6528 1152.77 92.882 1152.77 94.3981ZM1282.52 109.971C1282.52 111.487 1281.29 112.716 1279.77 112.716C1278.26 112.716 1277.03 111.487 1277.03 109.971C1277.03 108.455 1278.26 107.225 1279.77 107.225C1281.29 107.225 1282.52 108.455 1282.52 109.971ZM1202.12 157.053C1201.05 155.981 1201.05 154.242 1202.12 153.169C1203.2 152.097 1204.93 152.096 1206 153.168C1207.07 154.241 1207.07 155.979 1206 157.052C1204.93 158.125 1203.19 158.125 1202.12 157.053ZM1419.95 153.123C1419.82 154.632 1420.94 155.962 1422.45 156.095C1423.96 156.228 1425.29 155.113 1425.42 153.604C1425.56 152.096 1424.44 150.766 1422.93 150.633C1421.42 150.5 1420.09 151.615 1419.95 153.123Z" fill="white" fill-opacity="0.2"/>
<path fill-rule="evenodd" clip-rule="evenodd" d="M975.511 54.2961L975.492 23.6147L980.5 23.6159L980.52 56.375L959.819 77.1138L978.189 95.5269L1007.57 95.5268C1008.57 93.1378 1010.93 91.4606 1013.68 91.4606C1017.34 91.4606 1020.3 94.4343 1020.3 98.1026C1020.3 101.771 1017.34 104.745 1013.68 104.745C1010.88 104.745 1008.48 103.005 1007.51 100.545L976.127 100.545L976.121 100.551L955.358 79.7396L926.287 79.7324L905.512 100.544C906.489 102.945 906.005 105.801 904.062 107.748C901.474 110.341 897.277 110.34 894.688 107.746C892.099 105.152 892.098 100.947 894.686 98.3548C896.665 96.3718 899.586 95.9061 902.008 96.9575L924.202 74.7236L924.202 74.7147L955.122 74.7224L975.511 54.2961ZM897.435 101.108C898.505 100.036 900.241 100.037 901.312 101.109C902.382 102.182 902.383 103.921 901.313 104.993C900.242 106.065 898.507 106.065 897.436 104.992C896.365 103.919 896.365 102.181 897.435 101.108ZM1013.68 100.85C1012.16 100.85 1010.94 99.6199 1010.94 98.1029C1010.94 96.5858 1012.16 95.356 1013.68 95.356C1015.19 95.356 1016.42 96.5858 1016.42 98.1029C1016.42 99.6199 1015.19 100.85 1013.68 100.85Z" fill="white" fill-opacity="0.2"/>
<path fill-rule="evenodd" clip-rule="evenodd" d="M509.707 29.9288L480.827 29.9288L459.151 51.6036L455.606 48.0606L478.749 24.9181L511.784 24.9181L511.786 24.9182V24.9205L533.67 46.7868H535.942H563.095C564.1 44.4015 566.461 42.7268 569.214 42.7268C572.88 42.7268 575.851 45.6959 575.851 49.3585C575.851 53.0211 572.88 55.9901 569.214 55.9901C566.411 55.9901 564.013 54.2532 563.04 51.7974H535.939L535.923 77.4174L557.814 99.2804L555.212 101.879L557.814 99.2819L580.986 122.395L580.986 122.397L580.986 155.391L559.766 176.573C560.099 177.363 560.283 178.231 560.283 179.142C560.283 182.804 557.311 185.773 553.646 185.773C549.98 185.773 547.009 182.804 547.009 179.142C547.009 175.479 549.98 172.51 553.646 172.51C554.559 172.51 555.43 172.695 556.222 173.028L575.969 153.317V124.471L554.266 102.823L533.506 82.0904L514.665 100.907C515.643 103.303 515.159 106.155 513.213 108.099C510.621 110.688 506.418 110.686 503.824 108.097C501.231 105.507 501.23 101.309 503.822 98.7204C505.805 96.7404 508.73 96.2755 511.156 97.3254L530.907 77.6008L530.923 51.1284L509.707 29.9288ZM566.47 49.3586C566.47 50.8732 567.698 52.101 569.214 52.101C570.73 52.101 571.959 50.8732 571.959 49.3586C571.959 47.844 570.73 46.6161 569.214 46.6161C567.698 46.6161 566.47 47.844 566.47 49.3586ZM550.901 179.142C550.901 180.656 552.13 181.884 553.646 181.884C555.161 181.884 556.39 180.656 556.39 179.142C556.39 177.627 555.161 176.399 553.646 176.399C552.13 176.399 550.901 177.627 550.901 179.142ZM510.458 101.471C509.386 100.4 507.648 100.399 506.576 101.47C505.504 102.54 505.504 104.276 506.577 105.347C507.649 106.418 509.388 106.419 510.459 105.348C511.531 104.278 511.531 102.542 510.458 101.471Z" fill="white" fill-opacity="0.2"/>
<path fill-rule="evenodd" clip-rule="evenodd" d="M203.315 82.8313C204.366 80.408 203.901 77.4866 201.918 75.5066C199.326 72.9181 195.123 72.9191 192.53 75.509C189.937 78.0988 189.936 82.2967 192.528 84.8852C194.474 86.8292 197.329 87.3127 199.729 86.3359L220.536 107.116L220.529 136.195L199.722 156.964L199.728 156.97L199.728 188.365C197.269 189.336 195.53 191.73 195.53 194.53C195.53 198.191 198.503 201.159 202.17 201.159C205.838 201.159 208.811 198.191 208.811 194.53C208.811 191.781 207.134 189.423 204.745 188.419L204.745 159.032L223.154 140.657L243.887 161.364L276.637 161.343L276.639 156.334L245.965 156.353L225.544 135.959L225.552 105.031L225.543 105.031L203.315 82.8313ZM199.165 78.2566C200.237 79.3271 200.237 81.0632 199.164 82.1342C198.092 83.2053 196.354 83.2057 195.282 82.1352C194.21 81.0646 194.21 79.3286 195.283 78.2576C196.355 77.1865 198.093 77.186 199.165 78.2566ZM199.424 194.53C199.424 193.016 200.653 191.789 202.17 191.789C203.687 191.789 204.916 193.016 204.916 194.53C204.916 196.044 203.687 197.271 202.17 197.271C200.653 197.271 199.424 196.044 199.424 194.53Z" fill="white" fill-opacity="0.2"/>
<path fill-rule="evenodd" clip-rule="evenodd" d="M376.048 36.2396L376.029 5.60597L381.044 5.60719L381.065 38.3152L360.331 59.0218L378.73 77.406L408.155 77.406C409.161 75.0208 411.522 73.3461 414.275 73.3461C417.94 73.3461 420.912 76.3153 420.912 79.9778C420.912 83.6404 417.94 86.6094 414.275 86.6094C411.471 86.6094 409.073 84.8724 408.101 82.4166L376.665 82.4166L376.659 82.4229L355.863 61.6436L326.747 61.6363L305.94 82.416C306.918 84.8126 306.434 87.6642 304.487 89.6082C301.895 92.1967 297.692 92.1957 295.099 89.6059C292.506 87.0161 292.505 82.8182 295.097 80.2296C297.079 78.2496 300.004 77.7848 302.431 78.8346L324.659 56.6351L324.659 56.6264L355.627 56.6342L376.048 36.2396ZM297.85 82.979C298.922 81.9085 300.66 81.9089 301.733 82.9799C302.805 84.051 302.806 85.7871 301.734 86.8576C300.662 87.9281 298.924 87.9277 297.851 86.8566C296.779 85.7856 296.778 84.0495 297.85 82.979ZM414.274 82.7207C412.758 82.7207 411.529 81.4928 411.529 79.978C411.529 78.4634 412.758 77.2355 414.274 77.2355C415.79 77.2355 417.019 78.4634 417.019 79.978C417.019 81.4927 415.79 82.7207 414.274 82.7207Z" fill="white" fill-opacity="0.2"/>
<path fill-rule="evenodd" clip-rule="evenodd" d="M104.887 22.9243C107.479 25.5129 107.478 29.7108 104.885 32.3006C102.291 34.8905 98.088 34.8915 95.4961 32.3029C94.85 31.6577 94.365 30.9124 94.0412 30.117L66.1219 30.1101L45.6984 50.5072L45.7178 81.1405V110.462H72.3626C73.3678 108.076 75.7292 106.402 78.482 106.402C82.1475 106.402 85.119 109.371 85.119 113.033C85.119 116.696 82.1475 119.665 78.482 119.665C75.6783 119.665 73.2807 117.928 72.3083 115.472H44.3771L22.5476 137.246L19 133.705L40.7007 112.06V81.1405H43.4604L40.7017 81.1398L40.6813 48.4318H40.6832L40.6822 48.4308L64.043 25.1002L94.0448 25.1077C94.369 24.3142 94.8536 23.5708 95.4984 22.9267C98.0916 20.3369 102.295 20.3358 104.887 22.9243ZM102.134 25.6745C103.206 26.7449 103.205 28.481 102.133 29.5521C101.061 30.6231 99.3222 30.6236 98.2503 29.5531C97.1784 28.4825 97.1788 26.7465 98.2513 25.6754C99.3237 24.6044 101.062 24.6039 102.134 25.6745ZM78.482 115.776C76.9662 115.776 75.7374 114.548 75.7374 113.034C75.7374 111.519 76.9662 110.291 78.482 110.291C79.9978 110.291 81.2266 111.519 81.2266 113.034C81.2266 114.548 79.9978 115.776 78.482 115.776Z" fill="white" fill-opacity="0.2"/>
<path fill-rule="evenodd" clip-rule="evenodd" d="M777.587 161.319C777.587 164.124 775.85 166.522 773.395 167.495L773.395 198.939L773.401 198.945L752.627 219.746L752.62 248.871L773.394 269.683C775.79 268.705 778.641 269.189 780.584 271.136C783.172 273.728 783.171 277.933 780.582 280.527C777.993 283.121 773.796 283.122 771.208 280.529C769.229 278.546 768.764 275.62 769.814 273.193L747.62 250.959L747.611 250.959L747.619 219.983L727.23 199.556L696.604 199.576L696.606 194.558L729.305 194.538L750.006 215.277L768.386 196.873L768.386 167.44C766.001 166.435 764.327 164.073 764.327 161.319C764.327 157.653 767.295 154.681 770.957 154.681C774.618 154.681 777.587 157.653 777.587 161.319ZM773.699 161.32C773.699 162.836 772.471 164.065 770.957 164.065C769.443 164.065 768.215 162.836 768.215 161.32C768.215 159.804 769.443 158.574 770.957 158.574C772.471 158.574 773.699 159.804 773.699 161.32ZM773.957 277.775C772.887 276.703 772.887 274.964 773.958 273.891C775.029 272.818 776.764 272.818 777.834 273.89C778.905 274.962 778.904 276.701 777.833 277.774C776.763 278.846 775.027 278.847 773.957 277.775Z" fill="white" fill-opacity="0.2"/>
<defs>
<linearGradient id="paint0_linear" x1="193.884" y1="10.7536" x2="367.809" y2="199.294" gradientUnits="userSpaceOnUse">
<stop stop-color="#612694" stop-opacity="0.08"/>
<stop offset="1" stop-color="white" stop-opacity="0"/>
<stop offset="1" stop-color="white" stop-opacity="0.02"/>
</linearGradient>
<linearGradient id="paint1_linear" x1="969.205" y1="12.7809" x2="1139.32" y2="197.179" gradientUnits="userSpaceOnUse">
<stop stop-color="#612694" stop-opacity="0.08"/>
<stop offset="1" stop-color="white" stop-opacity="0"/>
<stop offset="1" stop-color="white" stop-opacity="0.02"/>
</linearGradient>
<linearGradient id="paint2_linear" x1="1219.21" y1="12.7809" x2="1389.32" y2="197.179" gradientUnits="userSpaceOnUse">
<stop stop-color="#612694" stop-opacity="0.08"/>
<stop offset="1" stop-color="white" stop-opacity="0.02"/>
<stop offset="1" stop-color="white" stop-opacity="0"/>
</linearGradient>
<linearGradient id="paint3_linear" x1="410.246" y1="12.6497" x2="587.399" y2="196.469" gradientUnits="userSpaceOnUse">
<stop stop-color="#612694" stop-opacity="0.08"/>
<stop offset="1" stop-color="white" stop-opacity="0.02"/>
<stop offset="1" stop-color="white" stop-opacity="0"/>
</linearGradient>
<linearGradient id="paint4_linear" x1="458.66" y1="12.65" x2="633.847" y2="144.03" gradientUnits="userSpaceOnUse">
<stop stop-color="#612694" stop-opacity="0.08"/>
<stop offset="1" stop-color="white" stop-opacity="0"/>
<stop offset="1" stop-color="white" stop-opacity="0.02"/>
</linearGradient>
<linearGradient id="paint5_linear" x1="685.139" y1="10.6606" x2="861.903" y2="193.395" gradientUnits="userSpaceOnUse">
<stop stop-color="#612694" stop-opacity="0.08"/>
<stop offset="1" stop-color="white" stop-opacity="0.02"/>
<stop offset="1" stop-color="white" stop-opacity="0"/>
</linearGradient>
<linearGradient id="paint6_linear" x1="740.928" y1="10.6606" x2="927.756" y2="214.046" gradientUnits="userSpaceOnUse">
<stop stop-color="#612694" stop-opacity="0.08"/>
<stop offset="1" stop-color="white" stop-opacity="0"/>
<stop offset="1" stop-color="white" stop-opacity="0.02"/>
</linearGradient>
<linearGradient id="paint7_linear" x1="1081.97" y1="10.6497" x2="1257.27" y2="142.291" gradientUnits="userSpaceOnUse">
<stop stop-color="#612694" stop-opacity="0.08"/>
<stop offset="1" stop-color="white" stop-opacity="0"/>
<stop offset="1" stop-color="white" stop-opacity="0.02"/>
</linearGradient>
</defs>
</svg>
