<svg width="256" height="184" viewBox="0 0 256 184" fill="none" xmlns="http://www.w3.org/2000/svg">
<rect width="256" height="183.982" fill="black" fill-opacity="0"/>
<path class="top" fill-rule="evenodd" clip-rule="evenodd" d="M107.49 174.685L109.15 178.772L110.69 174.685H112.328V180.396H111.247V175.68L109.444 180.396H108.833L106.932 175.68V180.396H105.884V174.685H107.49ZM104.564 174.685V175.535H102.685V180.396H101.505V175.535H99.6266V174.685H104.564ZM96.7777 1.60947C98.5716 9.81966 94.9537 17.6826 87.908 22.25C82.488 25.7637 79.3887 26.256 68.0164 25.318C55.6191 24.2949 40.5523 13.0393 32.0083 1.6108H96.7777V1.60947V1.60947Z" fill="#512888"/>
<path class="bottom-left" fill-rule="evenodd" clip-rule="evenodd" d="M54.4073 179.316C35.5625 169.249 23.7563 154.819 23.7563 138.791C23.7563 108.373 66.2819 83.7123 118.737 83.7123C136.693 83.7123 153.61 86.5142 167.932 91.5367C166.147 94.9852 165.327 99.1242 164.864 102.401C159.722 100.98 151.234 99.5433 144.612 99.4981C121.292 98.8116 97.0081 105.794 86.5375 127.396C78.3753 142.99 81.6621 164.017 93.9321 176.776L96.6387 179.524L96.6332 179.813C85.7493 184.486 70.6961 185.607 59.2253 181.231L54.4073 179.316V179.316Z" fill="#512888"/>
<path class="middle" fill-rule="evenodd" clip-rule="evenodd" d="M171.357 87.0597C181.286 73.2337 199.234 68.2405 208.219 73.4891C215.293 77.6215 218.308 85.1452 215.691 94.3173C215.531 94.8787 215.002 96.2398 215.063 96.7107C215.245 98.0572 217.653 97.0021 221.748 92.142C222.642 91.0816 225.423 87.3417 227.226 83.8506C227.529 83.6657 227.818 83.9584 228.213 83.9677C230.677 84.3083 233.232 85.0347 235.806 84.899C241.08 79.5533 253.003 56.7188 255.773 47.117C256.144 45.8318 256.374 45.2424 253.846 43.4862C232.04 28.3404 201.857 20.3404 172.788 15.9739C172.788 15.9739 172.261 15.9606 172.25 15.6838C172.234 15.1543 172.906 15.1104 173.301 15.0239C173.301 15.0239 189.929 15.4776 190.2 15.4776C190.473 15.4776 190.912 15.3299 191.09 15.153C191.272 14.9774 191.415 14.1578 191.028 13.8598C171.949 5.54318 146.658 -2.65371 101.935 0.817426L101.83 1.10347C103.074 7.37919 100.397 15.3566 98.3691 18.7199C94.2737 25.5105 84.7062 31.2754 71.6987 30.7485C58.6912 30.2216 40.3923 21.3329 29.7985 7.65061L29.1116 7.44438C19.0789 9.44271 9.72348 12.6039 0.058839 15.8608L5.21983e-08 129.544C12.3658 105.468 45.8054 85.084 87.5031 79.1475C119.115 74.6493 148.013 78.1483 168.813 87.4868C168.813 87.4868 169.644 87.9285 170.201 87.8074C171.015 87.6358 171.357 87.0597 171.357 87.0597V87.0597Z" fill="#512888"/>
<path class="bottom-right" fill-rule="evenodd" clip-rule="evenodd" d="M168.405 165.005C164.174 156.887 155.377 151.248 145.454 151.248C134.796 151.248 125.413 157.596 121.581 166.704C113.141 160.309 107.527 151.121 107.527 140.856C107.527 121.546 126.287 105.891 149.427 105.891C154.752 105.891 159.853 106.488 164.538 108.001C165.124 113.947 168.531 118.756 173.895 121.453C186.579 127.835 197.151 122.045 206.615 110.165C206.615 110.165 206.968 109.596 207.291 109.482C207.787 109.307 208.194 109.557 208.244 110.269C208.381 113.063 207.526 115.831 206.871 118.509C205.929 120.796 205.283 123.187 204.246 125.374C206.368 127.726 209.094 129.613 210.917 132.151C201.638 145.071 180.137 159.915 168.405 165.005V165.005Z" fill="#512888"/>
</svg>
