<svg width="2396" height="803" viewBox="0 0 2396 803" fill="none" xmlns="http://www.w3.org/2000/svg">
<g id="Background">
<g id="Homepage-Background">
<path id="bg" d="M0 0H2396V802.428H0V0Z" fill="url(#paint0_linear)"/>
<g id="Everything">
<g id="art">
<path id="Rectangle 18" d="M0.0857522 1.2207e-05H6.70397e-05H0.171647H0.0857522Z" transform="translate(1881.88 292.57)" stroke="url(#paint1_linear)"/>
<path id="Rectangle 19" d="M-1.14861e-05 0H250.632L674.645 965.001H424.013L-1.14861e-05 0Z" transform="translate(322.01 2.99902)" fill="url(#paint2_linear)"/>
<path id="Rectangle-19" d="M7.83142e-07 0H125.316L410.455 632.036H285.139L7.83142e-07 0Z" transform="translate(16.2524)" fill="url(#paint3_linear)"/>
<path id="Rectangle-19_2" d="M-4.17675e-05 0H222.652L365.221 316.018H142.57L-4.17675e-05 0Z" transform="translate(2005.06)" fill="url(#paint4_linear)"/>
<path id="Rectangle-19_3" d="M-3.75908e-05 0H250.632L674.645 965.001L423.91 964.787L-3.75908e-05 0Z" transform="translate(1128.27)" fill="url(#paint5_linear)"/>
<path id="Rectangle-19_4" d="M0 0H347.592L771.604 965.001H424.013L0 0Z" transform="translate(524.74 2.99902)" fill="url(#paint6_linear)"/>
<path id="Rectangle-19_5" d="M-3.75908e-05 0H82.1354L506.054 964.787L423.38 963.572L-3.75908e-05 0Z" transform="translate(1346.4)" fill="url(#paint7_linear)"/>
<path id="Circuit" fill-rule="evenodd" clip-rule="evenodd" d="M361.025 50.4539C362.905 49.6633 364.971 49.2264 367.14 49.2264C375.859 49.2264 382.927 56.2916 382.927 65.007C382.927 73.7223 375.859 80.7875 367.14 80.7875C358.421 80.7875 351.353 73.7223 351.353 65.007C351.353 62.8344 351.792 60.7643 352.586 58.8807L305.662 11.929H236.992L185.458 63.5317L136.103 112.892L180.896 157.689C186.602 155.364 193.39 156.515 198.018 161.143C204.18 167.306 204.177 177.3 198.012 183.466C191.847 189.631 181.854 189.634 175.691 183.471C170.978 178.757 169.871 171.802 172.37 166.033L125.414 119.073L62.3953 119.034L11.9282 169.479V238.146L63.5266 289.684L55.0923 298.115L0.000244141 243.087L0 164.541L0.000244141 164.535H0.00585938L52.0598 112.503V107.101V42.5402C46.3813 40.15 42.3948 34.5354 42.3948 27.9901C42.3948 19.2747 49.4629 12.2095 58.1819 12.2095C66.9009 12.2095 73.969 19.2747 73.969 27.9901C73.969 34.6562 69.834 40.3569 63.9878 42.6692V107.109L124.978 107.147L177.025 55.0964L177.028 55.0967L232.051 0L232.054 0.00317383V0H310.6L361.025 50.4539ZM58.1821 34.516C61.7876 34.516 64.7107 31.5943 64.7107 27.9902C64.7107 24.3861 61.7876 21.4644 58.1821 21.4644C54.5764 21.4644 51.6536 24.3861 51.6536 27.9902C51.6536 31.5943 54.5764 34.516 58.1821 34.516ZM367.14 71.5329C370.745 71.5329 373.668 68.6112 373.668 65.0071C373.668 61.403 370.745 58.4813 367.14 58.4813C363.534 58.4813 360.611 61.403 360.611 65.0071C360.611 68.6112 363.534 71.5329 367.14 71.5329ZM182.239 167.692C179.689 170.242 179.688 174.375 182.237 176.924C184.785 179.473 188.918 179.472 191.468 176.922C194.017 174.372 194.018 170.239 191.47 167.69C188.921 165.141 184.789 165.142 182.239 167.692Z" transform="translate(600.894 499.617)" fill="white" fill-opacity="0.2"/>
<path id="Circuit_2" fill-rule="evenodd" clip-rule="evenodd" d="M153.679 225.927L205.28 277.464L196.845 285.894L141.751 230.868L141.751 161.154L79.8706 161.138L30.4012 210.608C32.7265 216.313 31.5754 223.102 26.9475 227.73C20.785 233.893 10.7912 233.89 4.62574 227.725C-1.53975 221.559 -1.54224 211.566 4.62024 205.403C9.33375 200.69 16.2887 199.583 22.0576 202.082L74.9072 149.232L74.9073 149.212L144.849 149.229L193.812 100.29L193.812 30.3294C188.134 27.9393 184.147 22.3249 184.147 15.7799C184.147 7.06496 191.216 4.18641e-05 199.935 0C208.654 1.29253e-06 215.723 7.06492 215.723 15.7799C215.723 22.4458 211.587 28.1464 205.741 30.4585L205.741 105.199L205.755 105.214L153.679 157.264L153.679 225.927ZM206.465 15.781C206.465 19.3851 203.542 22.307 199.936 22.307C196.33 22.3069 193.407 19.3851 193.407 15.781C193.407 12.1769 196.33 9.25511 199.936 9.25514C203.542 9.25504 206.465 12.1768 206.465 15.781ZM11.1671 211.949C13.7156 209.4 17.8486 209.401 20.3984 211.951C22.9482 214.501 22.9492 218.634 20.4007 221.182C17.8522 223.731 13.7192 223.73 11.1694 221.18C8.61959 218.63 8.61854 214.497 11.1671 211.949Z" transform="translate(1428.52 845.483) rotate(-135)" fill="white" fill-opacity="0.2"/>
<path id="Circuit_3" fill-rule="evenodd" clip-rule="evenodd" d="M4.62018 205.403C9.33375 200.689 16.2889 199.583 22.0578 202.082L74.9073 149.232L74.9074 149.212L144.849 149.229L193.812 100.29L193.812 30.3293C188.134 27.9392 184.147 22.3249 184.147 15.7799C184.147 7.06488 191.216 -4.18639e-05 199.935 2.0977e-10C208.654 -4.44524e-05 215.723 7.06491 215.723 15.7799C215.723 22.4458 211.587 28.1465 205.741 30.4586L205.741 105.199L205.756 105.214L153.679 157.264L153.679 225.927L205.28 277.464L196.845 285.894L141.751 230.868L141.751 161.154L79.8708 161.138L30.4012 210.608C32.7264 216.313 31.5755 223.102 26.9475 227.73C20.785 233.893 10.7913 233.89 4.62577 227.725C-1.53974 221.559 -1.54225 211.565 4.62018 205.403ZM11.1671 211.948C13.7157 209.4 17.8487 209.401 20.3985 211.951C22.9483 214.5 22.9493 218.634 20.4008 221.182C17.8523 223.731 13.7193 223.73 11.1694 221.18C8.61967 218.63 8.61865 214.497 11.1671 211.948ZM206.465 15.7809C206.465 19.3851 203.542 22.3069 199.936 22.3069C196.33 22.3068 193.407 19.3851 193.407 15.7809C193.407 12.1768 196.33 9.25504 199.936 9.25501C203.542 9.25502 206.465 12.1768 206.465 15.7809Z" transform="translate(2012.06 346.224) rotate(135)" fill="white" fill-opacity="0.2"/>
<path id="Circuit_4" fill-rule="evenodd" clip-rule="evenodd" d="M4.62007 4.62033C10.7822 -1.54227 20.7756 -1.53982 26.9409 4.62595C33.1062 10.7917 33.1086 20.7859 26.9464 26.9485C25.4102 28.4847 23.6361 29.6379 21.7424 30.4079L21.7258 96.7911L70.2824 145.352L143.207 145.306H213.009V81.9526C207.33 79.5625 203.344 73.9478 203.344 67.4026C203.344 58.6872 210.412 51.622 219.131 51.622C227.85 51.622 234.918 58.6872 234.918 67.4026C234.918 74.0687 230.783 79.7694 224.937 82.0816V148.493L276.771 200.397L268.341 208.832L216.812 157.234H143.207V150.077L143.206 157.232L65.3419 157.281V157.276L65.3396 157.279L9.79952 101.734L9.81734 30.3993C7.92854 29.6283 6.15865 28.4762 4.62557 26.943C-1.53972 20.7772 -1.54216 10.7831 4.62007 4.62033ZM11.1667 11.166C13.715 8.6174 17.848 8.61838 20.3977 11.1683C22.9473 13.7182 22.9483 17.8514 20.4 20.4C17.8515 22.9487 13.7187 22.9476 11.169 20.3978C8.61922 17.8479 8.61824 13.7147 11.1667 11.166ZM225.659 67.4026C225.659 71.0067 222.736 73.9283 219.131 73.9283C215.525 73.9283 212.602 71.0067 212.602 67.4026C212.602 63.7986 215.525 60.8768 219.131 60.8768C222.736 60.8768 225.659 63.7986 225.659 67.4026Z" transform="translate(1114.28 169.202)" fill="white" fill-opacity="0.2"/>
</g>
<g id="top">
<path id="Vector" d="M0.499564 0.0619506C19.5397 2.41451 580.497 70.9839 1279.93 71C1280.09 71 1280.26 71 1280.42 71C1634.28 70.9919 2023.55 53.4323 2396 0.874536V71H1280.42C1280.26 71 1280.09 71 1279.93 71H0L0.499564 0.0619506Z" transform="translate(0 733)" fill="white"/>
</g>
</g>
</g>
</g>
<defs>
<linearGradient id="paint0_linear" x2="1" gradientUnits="userSpaceOnUse" gradientTransform="translate(1595.75 2.98558) scale(795.492 795.319) rotate(90)">
<stop stop-color="#4B2694"/>
<stop offset="1" stop-color="#612694"/>
</linearGradient>
<linearGradient id="paint1_linear" x2="1" gradientUnits="userSpaceOnUse" gradientTransform="scale(0.171622 1)">
<stop stop-color="white" stop-opacity="0"/>
<stop offset="0.86" stop-color="white"/>
<stop offset="1" stop-color="white" stop-opacity="0"/>
</linearGradient>
<linearGradient id="paint2_linear" x2="1" gradientUnits="userSpaceOnUse" gradientTransform="matrix(436.467 969.952 661.053 -641.085 -216.045 315.264)">
<stop stop-color="#612694" stop-opacity="0.08"/>
<stop offset="1" stop-color="white" stop-opacity="0"/>
<stop offset="1" stop-color="white" stop-opacity="0.02"/>
</linearGradient>
<linearGradient id="paint3_linear" x2="1" gradientUnits="userSpaceOnUse" gradientTransform="translate(-69.9122 142.424) scale(334.676 -528.809) rotate(-56.5138)">
<stop stop-color="#612694" stop-opacity="0.08"/>
<stop offset="1" stop-color="white" stop-opacity="0.01"/>
<stop offset="1" stop-color="white" stop-opacity="0"/>
</linearGradient>
<linearGradient id="paint4_linear" x2="1" gradientUnits="userSpaceOnUse" gradientTransform="translate(-62.2077 71.2122) scale(297.793 -264.405) rotate(-56.5138)">
<stop stop-color="#612694" stop-opacity="0.08"/>
<stop offset="1" stop-color="white" stop-opacity="0.01"/>
<stop offset="1" stop-color="white" stop-opacity="0"/>
</linearGradient>
<linearGradient id="paint5_linear" x2="1" gradientUnits="userSpaceOnUse" gradientTransform="matrix(431.692 969.952 662.459 -637.197 -216.748 313.32)">
<stop stop-color="#612694" stop-opacity="0.08"/>
<stop offset="1" stop-color="white" stop-opacity="0"/>
<stop offset="1" stop-color="white" stop-opacity="0.02"/>
</linearGradient>
<linearGradient id="paint6_linear" x2="1" gradientUnits="userSpaceOnUse" gradientTransform="matrix(550.645 969.952 745.427 -686.486 -241.779 337.965)">
<stop stop-color="#612694" stop-opacity="0.08"/>
<stop offset="1" stop-color="white" stop-opacity="0.02"/>
<stop offset="1" stop-color="white" stop-opacity="0"/>
</linearGradient>
<linearGradient id="paint7_linear" x2="1" gradientUnits="userSpaceOnUse" gradientTransform="matrix(342.632 969.95 489.395 -651.311 -158.824 320.379)">
<stop stop-color="#612694" stop-opacity="0.08"/>
<stop offset="1" stop-color="white" stop-opacity="0.02"/>
<stop offset="1" stop-color="white" stop-opacity="0"/>
</linearGradient>
</defs>
</svg>
